<svg xmlns="http://www.w3.org/2000/svg" viewBox="0 0 96 96" width="96" height="96">
  <rect x="8" y="84" width="80" height="6" rx="2" fill="#0073aa"/>
  <path d="M14 84 L14 36 L26 36 L26 84 Z" fill="#0073aa"/>
  <path d="M70 84 L70 36 L82 36 L82 84 Z" fill="#0073aa"/>
  <path d="M14 36 Q20 24 26 36 Z" fill="#0073aa"/>
  <path d="M70 36 Q76 24 82 36 Z" fill="#0073aa"/>
  <path d="M26 84 L26 30 L70 30 L70 84 Z" fill="#0073aa"/>
  <path d="M30 30 Q48 8 66 30 Z" fill="#0073aa"/>
  <path d="M36 84 L36 56 Q48 40 60 56 L60 84 Z" fill="#f2f7fa"/>
  <circle cx="48" cy="18" r="3" fill="#6d28d9"/>
  <rect x="17" y="46" width="6" height="10" rx="2" fill="#f2f7fa"/><rect x="73" y="46" width="6" height="10" rx="2" fill="#f2f7fa"/>
  <rect x="40" y="40" width="4" height="8" rx="2" fill="#f2f7fa" opacity=".5"/><rect x="52" y="40" width="4" height="8" rx="2" fill="#f2f7fa" opacity=".5"/>
</svg>
