<svg xmlns="http://www.w3.org/2000/svg" viewBox="0 0 200 96" width="200" height="96">
  <rect x="16" y="40" width="16" height="16" rx="2" transform="rotate(45 24 48)" fill="#6d28d9"/>
  <rect x="168" y="40" width="16" height="16" rx="2" transform="rotate(45 176 48)" fill="#6d28d9"/>
  <g transform="translate(52 0)">
<path d="M40 14 L48 6 L56 14" fill="none" stroke="#0d1b2a" stroke-width="3" stroke-linecap="round" stroke-linejoin="round"/>
  <rect x="20" y="16" width="56" height="60" rx="12" fill="#E8B93B"/>
  <rect x="20" y="52" width="56" height="11" fill="#6d28d9"/>
  <rect x="28" y="24" width="40" height="20" rx="5" fill="#0d1b2a"/>
  <rect x="31" y="27" width="16" height="6" rx="2" fill="#f2f7fa"/>
  <circle cx="34" cy="69" r="3.5" fill="#0d1b2a"/>
  <circle cx="62" cy="69" r="3.5" fill="#0d1b2a"/>
  <rect x="44" y="65" width="8" height="8" rx="2" fill="#0d1b2a"/>
  <path d="M20 78 L14 88 M76 78 L82 88" stroke="#0d1b2a" stroke-width="3" stroke-linecap="round"/>
  <rect x="8" y="88" width="80" height="3" rx="1.5" fill="#0d1b2a"/>
  </g>
</svg>
